# xmcd
#
# Track frame offsets:
#	150
#	13486
#	30357
#	45843
#	63519
#	78228
#	93721
#	107269
#	122233
#	137572
#	150509
#	165933
#	180366
#
# Disc length: 2647 seconds
#
# Revision: 0
# Processed by: cddbd v1.5.2PL0 Copyright (c) Steve Scherf et al.
# Submitted via: EasyCDDAExtractor 15.2.0.1
#
DISCID=900a550d
DTITLE=Jeff and Sheri Easter - Expecting Good Things
DYEAR=1900
DGENRE=
TTITLE0=The Sun Will Shine Again
TTITLE1=Born To Climb
TTITLE2=Time For Me To Fly
TTITLE3=Love Remains
TTITLE4=Workin´ On A Road
TTITLE5=I Know I Love You
TTITLE6=Expecting Good Things
TTITLE7=Over The Mountain
TTITLE8=I Get To
TTITLE9=I Need You More Today
TTITLE10=I Don´t Wanna Cry
TTITLE11=In The Name Of Jesus
TTITLE12=Hear My Heart
EXTD=
EXTT0=
EXTT1=
EXTT2=
EXTT3=
EXTT4=
EXTT5=
EXTT6=
EXTT7=
EXTT8=
EXTT9=
EXTT10=
EXTT11=
EXTT12=
PLAYORDER=
